<?xml version="1.0" encoding="UTF-8"?>
<svg xmlns="http://www.w3.org/2000/svg" viewBox="0 0 200 200">
   <defs>
      <style>
         path {
            fill: none;
            stroke: #ff0037;
            stroke-width: 4px;
         }
      </style>
   </defs>
   <path
      d="m168.25,53.16H31.75c-5.38,0-9.75-4.37-9.75-9.75s4.37-9.75,9.75-9.75h136.5c5.38,0,9.75,4.37,9.75,9.75s-4.37,9.75-9.75,9.75Z" />
   <path
      d="m168.25,109.75H31.75c-5.38,0-9.75-4.37-9.75-9.75s4.37-9.75,9.75-9.75h136.5c5.38,0,9.75,4.37,9.75,9.75s-4.37,9.75-9.75,9.75Z" />
   <path
      d="m168.25,166.34H31.75c-5.38,0-9.75-4.37-9.75-9.75s4.37-9.75,9.75-9.75h136.5c5.38,0,9.75,4.37,9.75,9.75s-4.37,9.75-9.75,9.75Z" />
</svg>