<?xml version="1.0" encoding="UTF-8"?>
<svg xmlns="http://www.w3.org/2000/svg" viewBox="0 0 185.12 185.12">
   <defs>
      <style>
         .cls-1 {
            fill: #0083a1;
         }
      </style>
   </defs>
   <g id="Logo_Lx">
      <path id="L-courbe" class="cls-1" d="M0,185.12C7.3,104.22,34.59,23.32,34.59,23.32c0,0,-20,80.9,-20,161.8" />
      <path id="L-droit" class="cls-1" d="M0,185.12C7.3,104.22,14.59,23.32,14.59,23.32c0,0,0,80.9,0,161.8" />
      <path id="X-courbe" class="cls-1"
         d="M107.98,185.12C74.85,115.49,61.72,45.86,61.72,45.86c0,0,21.19,69.63,62.38,139.26" />
      <path id="X-droit" class="cls-1" d="M107.98,185.12C74.85,115.49,41.72,45.86,41.72,45.86L124.1,185.12" />
      <path id="X-haut" class="cls-1"
         d="M7.55,185.12C34.79,123.66,101.77,36.81,185.12,0,106.45,38.78,45.89,125.92,23.6,185.11" />
   </g>
</svg>